# xmcd
#
# Track frame offsets: 
#        150
#        6586
#        23970
#        43386
#        56898
#        63314
#        65614
#        82914
#        99574
#
# Disc length: 1535 seconds
#
# Revision: 0
# Processed by: cddbd v1.5.2PL0 Copyright (c) Steve Scherf et al.
# Submitted via: ExactAudioCopy v0.99pb5
#
DISCID=7d05fd09
DTITLE=Highlands Country - May 29, 2011
DYEAR=2011
DGENRE=Country
TTITLE0=The Star-Spangled Banner
TTITLE1=Memorial Day Video
TTITLE2=He Leadeth Me
TTITLE3=About Life
TTITLE4=Declaration Day Promo
TTITLE5=Welcome
TTITLE6=Victory In Jesus
TTITLE7=Country Strong
TTITLE8=My Hallelujah Song
EXTD=
EXTT0=
EXTT1=
EXTT2=
EXTT3=
EXTT4=
EXTT5=
EXTT6=
EXTT7=
EXTT8=
PLAYORDER=
